<?xml version="1.0" standalone="no"?>
<!DOCTYPE svg PUBLIC "-//W3C//DTD SVG 20010904//EN"
 "http://www.w3.org/TR/2001/REC-SVG-20010904/DTD/svg10.dtd">
<svg version="1.0" xmlns="http://www.w3.org/2000/svg"
 width="1024.000000pt" height="1024.000000pt" viewBox="0 0 1024.000000 1024.000000"
 preserveAspectRatio="xMidYMid meet">
<metadata>
Created by potrace 1.14, written by Peter Selinger 2001-2017
</metadata>
<g transform="translate(0.000000,1024.000000) scale(0.100000,-0.100000)"
fill="#000000" stroke="none">
<path d="M7375 7660 c-49 -11 -301 -62 -560 -115 -258 -53 -513 -105 -565
-115 -52 -10 -250 -51 -440 -90 -190 -39 -388 -79 -440 -90 -104 -21 -570
-115 -1030 -210 -162 -33 -298 -60 -302 -60 -5 0 -8 -677 -8 -1505 0 -828 -4
-1505 -8 -1505 -5 0 -57 5 -115 11 -453 45 -934 -203 -1097 -565 -40 -88 -54
-159 -54 -256 4 -398 443 -664 964 -586 131 20 246 58 372 123 223 115 378
279 457 481 l26 67 3 1435 c1 789 6 1437 10 1441 4 4 120 30 257 58 138 28
450 91 695 141 245 50 488 100 540 110 52 11 250 51 440 90 190 39 360 74 378
77 l32 6 0 -1025 0 -1025 -47 9 c-79 15 -299 12 -393 -6 -347 -65 -634 -264
-769 -533 -40 -81 -61 -169 -61 -263 0 -148 51 -271 158 -379 161 -162 394
-241 677 -228 141 6 225 23 360 71 291 104 514 313 602 561 l28 80 3 1908 c2
1537 0 1907 -10 1906 -7 -1 -53 -9 -103 -19z"/>
</g>
</svg>
